<svg xmlns="http://www.w3.org/2000/svg" height="180" width="180" viewBox="0 0 180 180"><path d="M 87 19 C 49.563083 19 19 49.563083 19 87 C 19 124.43692 49.563083 155 87 155 C 102.12668 155 116.12779 150.0048 127.44727 141.58789 L 147.92969 162.07031 L 162.07031 147.92969 L 141.58789 127.44727 C 150.0048 116.12779 155 102.12668 155 87 C 155 49.563083 124.43692 19 87 19 z M 87 39 C 113.62811 39 135 60.371886 135 87 C 135 113.62811 113.62811 135 87 135 C 60.371886 135 39 113.62811 39 87 C 39 60.371886 60.371886 39 87 39 z "/></svg>
